# 3ds Max Wavefront OBJ Exporter v0.97b - (c)2007 guruware
# File Created: 16.02.2017 22:11:34

mtllib d6.mtl

#
# object Box01
#

v  -0.2200 0.0000 0.2200
v  -0.2200 0.0000 -0.2200
v  0.2200 0.0000 -0.2200
v  0.2200 0.0000 0.2200
v  -0.2200 0.4400 0.2200
v  0.2200 0.4400 0.2200
v  0.2200 0.4400 -0.2200
v  -0.2200 0.4400 -0.2200
# 8 vertices

vn 0.0000 -1.0000 -0.0000
vn 0.0000 1.0000 -0.0000
vn 0.0000 0.0000 1.0000
vn 1.0000 0.0000 -0.0000
vn 0.0000 0.0000 -1.0000
vn -1.0000 0.0000 -0.0000
# 6 vertex normals

vt -0.0072 1.4897 0.0000
vt -0.3275 1.4897 0.0000
vt -0.3275 1.0073 0.0000
vt -0.0072 1.0073 0.0000
vt -0.9909 1.5095 0.0000
vt -0.6690 1.5095 0.0000
vt -0.6690 1.9909 0.0000
vt -0.9909 1.9909 0.0000
vt -0.9919 1.0075 0.0000
vt -0.6720 1.0075 0.0000
vt -0.6720 1.4909 0.0000
vt -0.9919 1.4909 0.0000
vt -0.3390 1.0067 0.0000
vt -0.3390 1.4894 0.0000
vt -0.6596 1.4894 0.0000
vt -0.6596 1.0067 0.0000
vt -0.0070 1.9865 0.0000
vt -0.3268 1.9865 0.0000
vt -0.3268 1.5086 0.0000
vt -0.0070 1.5086 0.0000
vt -0.3411 1.9898 0.0000
vt -0.6587 1.9879 0.0000
vt -0.6592 1.5103 0.0000
vt -0.3392 1.5110 0.0000
# 24 texture coords

g Box01
usemtl 01___Default
s 2
f 1/1/1 2/2/1 3/3/1 
f 3/3/1 4/4/1 1/1/1 
s 4
f 5/5/2 6/6/2 7/7/2 
f 7/7/2 8/8/2 5/5/2 
s 8
f 1/9/3 4/10/3 6/11/3 
f 6/11/3 5/12/3 1/9/3 
s 16
f 4/13/4 3/14/4 7/15/4 
f 7/15/4 6/16/4 4/13/4 
s 32
f 3/17/5 2/18/5 8/19/5 
f 8/19/5 7/20/5 3/17/5 
s 64
f 2/21/6 1/22/6 5/23/6 
f 5/23/6 8/24/6 2/21/6 
# 12 faces

